<?xml version="1.0" standalone="no"?>
<!DOCTYPE svg PUBLIC "-//W3C//DTD SVG 20010904//EN"
 "http://www.w3.org/TR/2001/REC-SVG-20010904/DTD/svg10.dtd">
<svg version="1.0" xmlns="http://www.w3.org/2000/svg"
 width="512.000000pt" height="512.000000pt" viewBox="0 0 512.000000 512.000000"
 preserveAspectRatio="xMidYMid meet">

<g transform="translate(0.000000,512.000000) scale(0.100000,-0.100000)"
fill="#000000" stroke="none">
<path d="M2300 4980 c-129 -37 -359 -102 -510 -145 -295 -82 -383 -107 -389
-112 -4 -2 62 -157 108 -253 l26 -55 1 -460 c1 -253 2 -488 3 -522 l1 -63 90
0 90 0 2 473 3 473 405 -77 c223 -42 526 -99 674 -128 148 -28 275 -51 282
-51 6 0 78 72 158 160 l146 160 0 -505 0 -505 100 0 100 0 -2 522 -3 522 -215
135 c-118 73 -347 217 -508 318 -161 100 -300 183 -310 182 -9 -1 -123 -32
-252 -69z"/>
<path d="M1999 965 l-86 -43 -42 -100 c-43 -102 -59 -120 -157 -170 -13 -7
-26 -27 -31 -48 -4 -20 -15 -41 -23 -45 -8 -4 -87 -24 -175 -44 -88 -21 -169
-39 -180 -42 -11 -2 -38 -29 -60 -59 -22 -30 -48 -65 -59 -77 -10 -12 -30 -38
-45 -57 -23 -31 -68 -88 -184 -232 l-38 -48 1641 0 1641 0 -93 118 c-51 64
-95 119 -98 122 -3 3 -21 25 -40 50 -47 61 -46 60 -81 105 -17 22 -36 48 -43
57 -8 11 -72 30 -196 59 -102 23 -190 46 -196 51 -7 5 -15 24 -18 43 -4 21
-15 39 -29 46 -99 52 -115 68 -158 172 l-42 100 -92 43 c-51 24 -95 44 -99 44
-3 0 -6 -87 -6 -193 l0 -193 -67 -80 c-38 -45 -138 -165 -223 -268 -85 -102
-158 -185 -162 -184 -4 2 -107 124 -228 271 l-220 269 0 189 c0 145 -3 189
-12 188 -7 0 -52 -20 -99 -44z"/>
</g>
</svg>
